<?xml version="1.0" encoding="utf-8"?><svg viewBox="0 0 32 32" xmlns="http://www.w3.org/2000/svg" xmlns:xlink="http://www.w3.org/1999/xlink"><style>:root>svg{display:none}:root>svg:target{display:block}</style><svg fill="none" viewBox="0 0 20 21" id="icon-basket" xmlns="http://www.w3.org/2000/svg"><g clip-path="url(#aclip0_529_1036)"><path fill-rule="evenodd" clip-rule="evenodd" d="M.63.5a.626.626 0 00-.623.624v1.881c0 .344.28.622.623.624h.787l2.342 7.606v8.668c-.005.593.742.86 1.114.397l1.441-1.786 1.327 1.768a.625.625 0 00.974.028l1.398-1.636 1.407 1.641c.26.303.735.287.976-.033l1.325-1.768 1.443 1.786v-.003c.322.398 1.112.273 1.112-.394v-8.668l2.341-7.606h.788a.626.626 0 00.623-.624V1.124A.626.626 0 0019.405.5H.63zm.629 1.252h17.517v.624H1.26v-.624zm2.05 1.877h4.207v2.296l-1.132 1.51-3.075-3.806zm5.459 0h2.499v2.276l-1.25 1.458-1.25-1.458V3.63zm3.752 0h4.206l-3.074 3.806-1.132-1.51V3.629zm4.156 2.05l-1.262 4.104-.988-1.316 2.25-2.788zM3.36 5.686L5.61 8.468l-.987 1.315-1.26-4.097zm4.81 1.446l1.022 1.192L8.116 9.58l-.923-1.143.978-1.305zm3.693.003l.976 1.304-.921 1.141-1.076-1.254 1.02-1.19zm-1.845 2.152l1.1 1.284-1.102 1.363-1.1-1.362 1.102-1.285zm3.595.183l1.224 1.631-.807.944-1.285-1.499.868-1.076zm-7.196.002l.87 1.075-1.295 1.51-.807-.94 1.232-1.645zm5.529 2.065l1.262 1.472-1.195 1.397-1.192-1.476 1.125-1.393zm-3.859.002l1.125 1.393-1.198 1.483-1.197-1.395 1.27-1.48zm6.936 1.27v.394l-.169-.197.17-.197zm-10.013.029l.156.183-.156.183v-.367zm5.006 1.09l1.17 1.448-1.172 1.37-1.171-1.364 1.173-1.454zm4.016.042l.815.95-1.164 1.554-.87-1.078 1.219-1.426zm-8.04.013l1.221 1.425-.863 1.067-1.164-1.553.806-.939zm5.993 2.382l.923 1.143-1.045 1.393-1.025-1.194 1.147-1.342zm-3.943.01l1.147 1.338-1.019 1.192-1.045-1.396.917-1.134zm-3.032.4l.528.705-.528.654v-1.358zm10.013.002v1.354l-.527-.651.527-.703z" fill="currentColor"/></g><defs><clipPath id="aclip0_529_1036"><path fill="#fff" transform="translate(0 .5)" d="M0 0h20v20H0z"/></clipPath></defs></svg><svg fill="none" viewBox="0 0 20 21" id="icon-burger" xmlns="http://www.w3.org/2000/svg"><path fill-rule="evenodd" clip-rule="evenodd" d="M1.667 4.944c0-.294.125-.577.348-.785.223-.209.526-.326.842-.326h14.286c.315 0 .618.117.841.326.224.208.35.49.35.785 0 .295-.126.578-.35.786a1.235 1.235 0 01-.841.326H2.857c-.316 0-.619-.118-.842-.326a1.075 1.075 0 01-.349-.786zm0 5.556c0-.295.125-.577.348-.786.223-.208.526-.325.842-.325h14.286c.315 0 .618.117.841.325.224.209.35.491.35.786 0 .295-.126.577-.35.786a1.235 1.235 0 01-.841.325H2.857c-.316 0-.619-.117-.842-.325a1.075 1.075 0 01-.349-.786zm0 5.555c0-.294.125-.577.348-.785.223-.208.526-.326.842-.326h14.286c.315 0 .618.117.841.326.224.208.35.49.35.785 0 .295-.126.578-.35.786a1.235 1.235 0 01-.841.326H2.857c-.316 0-.619-.117-.842-.326a1.075 1.075 0 01-.349-.786z" fill="currentColor"/></svg><svg fill="none" viewBox="0 0 20 20" id="icon-card" xmlns="http://www.w3.org/2000/svg"><g clip-path="url(#cclip0_384_19303)" fill="currentColor"><path d="M4.583 14.167a1.25 1.25 0 100-2.5 1.25 1.25 0 000 2.5z"/><path d="M15.833 2.5H4.167A4.172 4.172 0 000 6.667v6.666A4.172 4.172 0 004.167 17.5h11.666A4.172 4.172 0 0020 13.333V6.667A4.172 4.172 0 0015.833 2.5zM4.167 4.167h11.666a2.5 2.5 0 012.5 2.5H1.667a2.5 2.5 0 012.5-2.5zm11.666 11.666H4.167a2.5 2.5 0 01-2.5-2.5v-5h16.666v5a2.5 2.5 0 01-2.5 2.5z"/></g><defs><clipPath id="cclip0_384_19303"><path fill="#fff" d="M0 0h20v20H0z"/></clipPath></defs></svg><svg fill="none" viewBox="0 0 16 13" id="icon-check" xmlns="http://www.w3.org/2000/svg"><path d="M6.127 12.184a.815.815 0 01-1.155 0L.359 7.571a1.225 1.225 0 010-1.733l.578-.577a1.225 1.225 0 011.732 0l2.88 2.88L13.331.359a1.225 1.225 0 011.732 0l.578.578a1.225 1.225 0 010 1.732l-9.514 9.515z" fill="currentColor"/></svg><svg fill="none" viewBox="0 0 32 32" id="icon-close" xmlns="http://www.w3.org/2000/svg"><path d="M21 11a.833.833 0 00-1.178 0L16 14.822 12.178 11A.833.833 0 1011 12.178L14.822 16 11 19.822A.834.834 0 0012.178 21L16 17.178 19.822 21A.833.833 0 0021 19.822L17.178 16 21 12.178A.834.834 0 0021 11z" fill="currentColor"/></svg><svg fill="none" viewBox="0 0 20 20" id="icon-label-open" xmlns="http://www.w3.org/2000/svg"><path d="M15.591 6.842a.832.832 0 00-1.183 0l-3.817 3.816a.832.832 0 01-1.183 0L5.591 6.842a.833.833 0 10-1.183 1.175l3.825 3.825a2.5 2.5 0 003.533 0l3.825-3.825a.833.833 0 000-1.175z" fill="currentColor"/></svg><svg fill="none" viewBox="0 0 32 32" id="icon-login" xmlns="http://www.w3.org/2000/svg"><g clip-path="url(#gclip0_529_1030)" fill="currentColor"><path d="M16 16a5 5 0 100-10 5 5 0 000 10zm0-8.333a3.333 3.333 0 110 6.666 3.333 3.333 0 010-6.666zM16 17.667a7.508 7.508 0 00-7.5 7.5.833.833 0 101.667 0 5.833 5.833 0 1111.666 0 .833.833 0 101.667 0 7.508 7.508 0 00-7.5-7.5z"/></g><defs><clipPath id="gclip0_529_1030"><path fill="#fff" transform="translate(6 6)" d="M0 0h20v20H0z"/></clipPath></defs></svg><svg fill="none" viewBox="0 0 24 24" id="icon-minus" xmlns="http://www.w3.org/2000/svg"><path d="M17 11H7a1 1 0 100 2h10a1 1 0 100-2z" fill="currentColor"/></svg><svg fill="none" viewBox="0 0 20 20" id="icon-mob-filter" xmlns="http://www.w3.org/2000/svg"><g clip-path="url(#iclip0_542_4339)"><path d="M11.667 20a.833.833 0 01-.5-.167l-3.334-2.5a.832.832 0 01-.333-.666v-4.684L1.653 5.406A3.25 3.25 0 014.083 0h11.834a3.25 3.25 0 012.427 5.407L12.5 11.983v7.184a.833.833 0 01-.833.833zm-2.5-3.75l1.666 1.25v-5.833c0-.204.076-.401.211-.554L17.101 4.3a1.583 1.583 0 00-1.184-2.632H4.083A1.583 1.583 0 002.9 4.298l6.058 6.815c.135.153.21.35.21.554v4.583z" fill="currentColor"/></g><defs><clipPath id="iclip0_542_4339"><path fill="#fff" d="M0 0h20v20H0z"/></clipPath></defs></svg><svg fill="none" viewBox="0 0 8 8" id="icon-mob-filter-chosen" xmlns="http://www.w3.org/2000/svg"><rect x=".75" y=".75" width="6.5" height="6.5" rx="3.25" fill="#fff"/><rect x=".75" y=".75" width="6.5" height="6.5" rx="3.25" stroke="#F60" stroke-width="1.5"/></svg><svg fill="none" viewBox="0 0 20 20" id="icon-phone" xmlns="http://www.w3.org/2000/svg"><g clip-path="url(#kclip0_414_611)"><path d="M10.834.833A.834.834 0 0111.667 0 8.343 8.343 0 0120 8.333a.833.833 0 11-1.666 0 6.674 6.674 0 00-6.667-6.666.833.833 0 01-.833-.834zM11.667 5A3.333 3.333 0 0115 8.333a.833.833 0 101.667 0 5.005 5.005 0 00-5-5 .833.833 0 000 1.667zm7.577 8.95a2.583 2.583 0 010 3.648l-.758.874c-6.825 6.534-23.433-10.07-17-16.917l.958-.833A2.568 2.568 0 016.05.755c.026.026 1.57 2.032 1.57 2.032a2.583 2.583 0 01-.006 3.568L6.65 7.568a10.65 10.65 0 005.776 5.788l1.221-.97a2.584 2.584 0 013.567-.006s2.005 1.543 2.031 1.57zm-1.146 1.21s-1.994-1.533-2.02-1.56a.916.916 0 00-1.291 0c-.023.024-1.704 1.363-1.704 1.363a.833.833 0 01-.815.127 12.507 12.507 0 01-7.351-7.34.833.833 0 01.12-.833S6.378 5.235 6.4 5.213a.917.917 0 000-1.29c-.026-.025-1.56-2.021-1.56-2.021a.917.917 0 00-1.258.032l-.958.834c-4.702 5.653 9.69 19.247 14.645 14.565l.759-.875a.934.934 0 00.07-1.297z" fill="currentColor"/></g><defs><clipPath id="kclip0_414_611"><path fill="#fff" d="M0 0h20v20H0z"/></clipPath></defs></svg><svg fill="none" viewBox="0 0 24 24" id="icon-plus" xmlns="http://www.w3.org/2000/svg"><path d="M17 11h-4V7a1 1 0 00-2 0v4H7a1 1 0 000 2h4v4a1 1 0 002 0v-4h4a1 1 0 000-2z" fill="currentColor"/></svg><svg fill="none" viewBox="0 0 20 20" id="icon-search" xmlns="http://www.w3.org/2000/svg"><g clip-path="url(#mclip0_529_1048)"><path d="M19.756 18.578l-4.975-4.974a8.347 8.347 0 10-1.178 1.178l4.974 4.974a.833.833 0 001.179-1.178zM8.333 15.001A6.666 6.666 0 1115 8.334 6.674 6.674 0 018.333 15z" fill="currentColor"/></g><defs><clipPath id="mclip0_529_1048"><path fill="#fff" d="M0 0h20v20H0z"/></clipPath></defs></svg><svg fill="none" viewBox="0 0 20 20" id="icon-slider-arrow-next" xmlns="http://www.w3.org/2000/svg"><path d="M15 10a1.667 1.667 0 00-.492-1.167L10.933 5.25a.833.833 0 10-1.175 1.183L12.5 9.167H4.166a.833.833 0 000 1.666H12.5l-2.742 2.742a.834.834 0 101.175 1.183l3.575-3.583c.313-.311.49-.734.492-1.175z" fill="currentColor"/></svg><svg fill="none" viewBox="0 0 20 20" id="icon-slider-arrow-prev" xmlns="http://www.w3.org/2000/svg"><path d="M15.833 9.167H7.5l2.742-2.742a.833.833 0 10-1.175-1.183L5.492 8.825c-.313.311-.49.734-.492 1.175.004.438.18.858.492 1.167l3.575 3.583a.832.832 0 001.421-.595.835.835 0 00-.246-.588L7.5 10.833h8.333a.833.833 0 000-1.666z" fill="currentColor"/></svg><svg fill="none" viewBox="0 0 20 20" id="icon-track" xmlns="http://www.w3.org/2000/svg"><g clip-path="url(#pclip0_384_19291)"><path d="M20 9.167A4.171 4.171 0 0015.833 5h-1.666v-.833c0-1.379-1.122-2.5-2.5-2.5h-.834v1.666h.834c.459 0 .833.374.833.834V15H1.667v-5H0v6.667h1.7c-.02.137-.033.275-.033.416A2.92 2.92 0 004.583 20 2.92 2.92 0 007.5 17.083c0-.14-.014-.279-.034-.416h5.068c-.02.137-.034.275-.034.416A2.92 2.92 0 0015.417 20a2.92 2.92 0 002.916-2.917c0-.14-.014-.279-.034-.416H20v-7.5zM5.833 17.083c0 .69-.56 1.25-1.25 1.25-.689 0-1.25-.56-1.25-1.25 0-.157.033-.295.078-.416h2.346c.045.12.076.259.076.416zm10-10.416c1.379 0 2.5 1.121 2.5 2.5V10h-4.166V6.667h1.666zm.834 10.416c0 .69-.561 1.25-1.25 1.25-.69 0-1.25-.56-1.25-1.25 0-.157.032-.295.077-.416h2.346c.045.12.077.259.077.416zM14.167 15v-3.333h4.166V15h-4.166zm-5-12.917C9.167.934 8.232 0 7.083 0h-5A2.086 2.086 0 000 2.083v6.25h9.167v-6.25zM7.5 6.667H1.667V2.083c0-.229.186-.416.416-.416h5c.23 0 .417.187.417.416v4.584zM3.333 2.5h2.5v1.667h-2.5V2.5z" fill="currentColor"/></g><defs><clipPath id="pclip0_384_19291"><path fill="#fff" d="M0 0h20v20H0z"/></clipPath></defs></svg><svg fill="none" viewBox="0 0 32 32" id="social-facebook" xmlns="http://www.w3.org/2000/svg"><path d="M16 1.938C8.231 1.938 1.937 8.23 1.937 16c0 7.769 6.294 14.063 14.063 14.063 7.769 0 14.063-6.294 14.063-14.063 0-7.769-6.294-14.063-14.063-14.063zm4.038 8.818s-1.488-.012-1.863-.012c-.563 0-.938.487-.938.981v2.069h2.8l-.318 2.819h-2.513v7.2h-2.843V16.65h-2.4v-2.887H14.4v-2.726c0-1.518 1.687-2.856 2.862-2.856.175 0 2.776.025 2.776.025v2.55z" fill="currentColor"/></svg><svg fill="none" viewBox="0 0 32 32" id="social-instagram" xmlns="http://www.w3.org/2000/svg"><path d="M18.987 9.931H13.02A3.09 3.09 0 009.93 13.02v5.969a3.09 3.09 0 003.088 3.087h5.968a3.09 3.09 0 003.088-3.087v-5.97a3.094 3.094 0 00-3.088-3.087zM16 19.994A4.001 4.001 0 0112.006 16c0-2.2 1.794-3.994 3.994-3.994S19.994 13.8 19.994 16 18.2 19.994 16 19.994zm4.194-7.544a.672.672 0 01-.675-.675c0-.375.3-.675.675-.675.375 0 .675.3.675.675 0 .375-.3.675-.675.675z" fill="currentColor"/><path d="M18.428 16.03a2.425 2.425 0 10-4.85-.059 2.425 2.425 0 004.85.059z" fill="currentColor"/><path d="M16 1.938C8.231 1.938 1.937 8.23 1.937 16c0 7.769 6.294 14.063 14.063 14.063 7.769 0 14.063-6.294 14.063-14.063 0-7.769-6.294-14.063-14.063-14.063zm7.813 17.05a4.828 4.828 0 01-4.825 4.825h-5.97a4.828 4.828 0 01-4.824-4.825v-5.97a4.828 4.828 0 014.825-4.824h5.969a4.828 4.828 0 014.825 4.825v5.969z" fill="currentColor"/></svg></svg>